<?xml version="1.0" encoding="UTF-8"?>
<svg id="Laag_2" data-name="Laag 2" xmlns="http://www.w3.org/2000/svg" viewBox="0 0 520.5 196">
  <defs>
    <style>
      .cls-1 {
        fill: none;
        stroke: #ff9b54;
        stroke-miterlimit: 10;
      }
    </style>
  </defs>
  <g id="Laag_1-2" data-name="Laag 1">
    <g>
      <g>
        <path class="cls-1" d="M310,86.11v-7.07s0-.02,0-.02c-6.16.14-12.31-.67-18-3.52,5.23-2.38,10.69-2.71,16.26-2.53-2.04-3.28-5.66-5.47-9.8-5.47h-57.04c-10.81,2.3-21.61,5.04-32.42,0h-50.05c-4.11,1.1-8.42,2.32-11.09,0h-30.32c-2.7,0-5.17.93-7.14,2.48,1.93.4,3.76,1.14,5.59,2.52-2.81.56-5.61.8-8.42.73-1,1.71-1.58,3.69-1.58,5.81v1.26c8.43-.02,16.22,2.33,24,3.2-7.71,3.08-16.02-.37-24-1.2v7.57c2.6.63,4.8,1.89,7,2.62-1.99,2.65-4.42,3.1-7,2.52v11.53c11.87-.51,27.26-4.24,29,7.95,0,4-12,3-18-1-3.06-2.55-6.91-3.54-11-3.89v7.35c0,3.44,1.52,6.52,3.91,8.64,4.7-.36,9.4-1.8,14.09,2.9h34.22c4.43-2.24,8.8-3.87,13.78,0h48.59c-.98-1.39-2.28-2.69-3.59-4,8.08-2.2,16.16.45,23.45,4h23.53c3.76-1.32,7.65-2.52,12.02-3-.62.92-1.03,1.95-1.39,3h23.84c2.38,0,4.6-.72,6.44-1.96-.34-.63-.65-1.29-.9-2.04-1-3-7,0-10-3,0-1-2-3-1-4,4.88-4.07,11.09-2.18,17-1.87v-8.37c-5.03.57-10,1.88-10-3.76,0-1.7,5.81-.51,10-.74v-11.84c-8.1.63-16.55-1.13-25-.43v-3c8.65-1.73,16.55-.47,25-1.39ZM159,83.5c14,1,29-3,42,5-14-4-28-2-42-5ZM253,108.5c-14.07,0-27.37-3.87-41.26-5.48-1.94-.12-3.85-.29-5.74-.52,1.93.12,3.84.3,5.74.52,14.45.91,29.91-.7,42.26,5.48h-1Z"/>
        <path class="cls-1" d="M520,78.78c0-6.23-5.05-11.28-11.28-11.28h-21.69c-24.14,10.32-51.94,17.98-75.02,2,7.11,2.13,15.23,1.22,22.21-2h-106.93c-4.75,0-8.81,2.94-10.47,7.1,5.77-.29,11.71-.83,17.19,1.9-6,0-12,.74-18,2.21,0,.03,0,.05,0,.07v5.48c13.41-.1,26.21,1.97,39,6.24-13.46-2.38-26.3-2.86-39,.02v25.32c9-.66,18-3.84,27-5.34,2-1,4,1,6,2v3c-10.17,3.63-21.4,4.11-32.15,6.01,1.69,4.1,5.72,6.99,10.43,6.99h38.26c8.37-2.93,16.5-5.92,25.46-4,4.25,1.31,8.51,2.72,12.76,4h60.31c18.21-4.13,36.68-7.13,55.2-7.32.46-1.23.73-2.57.73-3.96v-.37c-6.61,2.49.45-2.56-1-4.35-1.02,0-2.78-2-4-2,1.94-.58,2.9-.48,3.29,0h1.71v-9.96c-6.32-.57-12.39-2.57-19-4.04,6.08-2.7,12.62-2.67,19-2.98v-8.76c-6.92.1-14.31-1.42-21-2.26,7-.78,14-.96,21-2.41v-1.31ZM370,91.5c4-1,6-5,10-4,13,0,25,4,38,6-16,1-32,1-48-2ZM467,103.5h-15c0-1,1-3,1-3,9-1,16-1,24,3h-10Z"/>
      </g>
      <path d="M347.89,49.27c1.02.14,2.05.23,3.11.23-1.04-.12-2.07-.19-3.11-.23Z"/>
      <path d="M411.95,30.5h6.05c-1.79-.6-3.86-.47-6.05,0Z"/>
      <path d="M437.2,160.81c-1.42-.11-2.82-.22-4.2-.31,1.42.19,2.82.29,4.2.31Z"/>
      <g>
        <path class="cls-1" d="M415,11.78c0-6.23-5.05-11.28-11.28-11.28h-45.73c-9.53,2.25-19.94,1.24-28.99,7-.88-2.65,1.36-4.53,1.19-7h-25.78c-1.41,1.07-2.69,2.53-3.42,4-5.65-4.4-12.89-3.67-19.71-4h-59c-4.71,0-8.75,2.89-10.44,7h14.15c-5.02,2.15-9.53,5.84-15,7.75v11.85c13.32-1.15,26.56-2.83,39,3.39,0,0,10,4,3,4-13.67,1.82-28.18-1.33-42-1.9v10.69c6.41.72,12.28,4.09,18.89,4.98,1.04.04,2.07.11,3.11.23-1.06,0-2.09-.09-3.11-.23-6.3-.26-12.59.66-18.89,1.06v.89c0,6.23,5.05,11.28,11.28,11.28h1.3c11.68-1.41,22.03-8.48,34.42-6-6.12,1.53-11.98,3.84-17.84,6h51.12c18.02-4.18,36.38-2.78,54.55,0h57.89c6.23,0,11.28-5.05,11.28-11.28h0c-7.31-.03-14.96.85-22-.72,6.65-4.43,14.38-3.41,22-4.18v-6.48c-5.67.22-11.33-.72-17-2.34,5.52-1.84,11.42-1.8,17-2.65v-7.91c-13.51,1.23-26.34-.26-40,1.56,11.46-7.64,25.83-10.02,40-11.17v-4.55ZM293.95,29.5c-8.81,1.91-19.54,9.61-21.95,0h21.95c2.19-.47,4.26-.6,6.05,0h-6.05ZM380,42.5c-21,2-41-4-61-4-1-1-3-1-4-2,21-7,46-4,65,6Z"/>
        <path class="cls-1" d="M205,31.04v-12.41c-5.47-.49-10.73-1.79-16-4.13,5.43-1.55,10.27-3.7,15.9-4.12-.69-5.57-5.43-9.88-11.19-9.88h-44.99c-3.92,1.85-8.35,3.47-11.41,0h-71.84c-6.33,5.45-16.73,2.4-26.74,0H12.28C7.01.5,2.59,4.13,1.35,9.02c12.8-1.83,26.07-.04,38.65,2.48-13.29,3.13-25.97,3.81-39,4.44v19.56h10c-3.5.44-6.8,1.08-10,1.9v10.81c8-.06,16,.89,24-.71-7.63,3.05-15.83,3.78-23.29,6.62,1.59,4.31,5.72,7.38,10.58,7.38h58.38c3.91-1.05,7.92-2,12.34-2,.57,0,.81.98.92,2h24.02c2.49-1.37,4.85-2.89,7.06-4,9.9-4.57,20.38-.44,30.12,4h20.84c-3.94-6.05-13.24-6.74-15.96-14,5,4,10,3,16,4s2,10,9,10h18.72c2.91,0,5.56-1.11,7.56-2.92-5.45.16-11.47.35-12.28-2.08-3.21-10.44,7.12-6.69,15.98-5.85,0-.15.02-.29.02-.44v-9.91c-10.41-1.64-20.86-3.43-31-6.81,10.01-2.73,20.84-3.8,31-2.46ZM39,36.5c8-1,17-5,24,0h-24ZM95.2,29.81c-1.38-.03-2.78-.12-4.2-.31,1.38.1,2.78.21,4.2.31,13.27.25,25.22-6.31,38.8-6.31-11.72,8.11-25.87,7.29-38.8,6.31Z"/>
      </g>
      <path d="M332.25,141.14c1.25.1,2.5.22,3.75.36-1.28-.26-2.53-.36-3.75-.36Z"/>
      <g>
        <path class="cls-1" d="M414.5,146.39c-8,.44-16,.45-24-.89,6.65-3.99,14.18-5.76,21.71-6.51-2.06-2.73-5.32-4.49-9-4.49h-52.34c-3.95,1.59-7.66,3.09-11.37,0h-65.65c-6.23,2.2-12.29,5.14-18.35,9-7,4-16,3-21-2-2.82-2.25-4.68-4.83-7.03-7h-5.69c-6.23,0-11.28,5.05-11.28,11.28v17.97c10.33.26,20.67-.98,31,.74-9.84,4.92-20.36,4.46-31,4.14v15.58c0,1.21.19,2.37.55,3.46,8.89-.18,17.33-2.52,26.45-4.18-6.21,5.52-12.43,9.61-19.63,11.29,1.22.45,2.53.71,3.91.71h66.81c15.9-3.46,32.26-2.09,48.33,0h66.3c6.23,0,11.28-5.05,11.28-11.28v-1.32c-16.37.49-33.98-3.95-50-8.4h50v-9.53c-5.38-.35-10.9-5.94-17-7.47h17v-11.11ZM267.5,171.5c14,0,29-3,43-3-14,4-29,5-43,3ZM320.5,155.5c5-2,10-2,15-2,1,1,3,1,4,2-7,1-13,2-19,0Z"/>
        <path class="cls-1" d="M204.5,145.78c0-6.23-5.05-11.28-11.28-11.28h-18.34c-8.79,3.52-17.58,7.86-26.38,2,1.67-.67,3.33-1.33,5-2h-41.35c-6.29,1.64-12.62,1.1-19.08,0H25.63c-6.25,5.86-14.04,5.32-21.69,3.18-2.12,2.05-3.44,4.92-3.44,8.1v3.73c6.08.02,12.17.13,18.25.63,1.22,0,2.47.1,3.75.36-1.25-.14-2.5-.25-3.75-.36-6.35.02-12.04,3.03-18.25,4.09v3.93c19.5,1.44,39.78-1.94,58,6.34-19.33-.92-38.67-.99-58-1v9.73c6.41-.08,12.36,1.43,19,2.26-6.11,1.83-12.6,1.43-19,1.75v6.97c0,2.78,1.01,5.32,2.67,7.28h11.33c-1.15,1.72-2.72,2.94-4.53,3.84.59.1,1.19.16,1.81.16h55.62c4.09-1.43,7.82-2.5,10.32,0h51.94c1.7-1.12,3.91-.95,5.77,0h57.79c4.76,0,8.82-2.95,10.48-7.12-9.49-.99-18.64-3.95-26.2-10.88v-4c8.48-4.24,17.69-2.01,27-1.85v-16.26c-3.83-.51-7.71-1.15-11-3.89,3.55-.71,7.1-2.92,11-3.08v-2.64ZM90,175c-5.88.23-10.32-.81-16.5-1.5v-3c4,3,9-2,14,2,.77.77,2.15,1.1,3.77,1.2,2.69-.1,5.41-.2,8.23-.2-2.45,0-6.93,1.67-9.5,1.5ZM84.5,155.5c14-2,27,0,41,0,0,0,2.5.5,3.5.5.08.03.92.98,1,1,2.92-.03,2.58,1.5,5.5,1.5-2.92,0-5.85.94-8.77.06-14.08.14-28.15.25-42.23-3.06Z"/>
      </g>
    </g>
  </g>
</svg>