<?xml version="1.0" encoding="UTF-8"?>
<svg id="Laag_2" data-name="Laag 2" xmlns="http://www.w3.org/2000/svg" viewBox="0 0 420 263">
  <defs>
    <style>
      .cls-1 {
        fill: none;
      }

      .cls-2 {
        fill: #ff9b54;
      }
    </style>
  </defs>
  <g id="Laag_1-2" data-name="Laag 1">
    <g>
      <path class="cls-2" d="M300.72,263h-40.71c-14.59-3.43-28.8-6.39-42.15-5.09.39.65.75,1.32,1.09,1.98.41.78.83,1.58,1.31,2.34l.48.77h-101.45c-.06,0-.12,0-.18,0l-.89-.02.36-.71c2.01-4,6.08-5.03,10.02-6.02,1.34-.34,2.63-.66,3.83-1.09-6.09.15-12.2-1.04-18.14-2.19-2.08-.4-4.24-.82-6.35-1.17l-.42-.07v-13.22s.46-.03.46-.03c5.85-.43,11.98-.54,17.33,2.94-.05-1.21.34-2.4.73-3.56.43-1.3.85-2.54.62-3.74-4.49,1.03-9.01.87-13.39.72-1.72-.06-3.5-.12-5.25-.11h-.5s0-15.75,0-15.75h.49c5.3-.08,10.28-1.34,14.82-3.77-2.9.1-5.93-.3-8.88-.69-1.97-.26-4-.53-5.96-.64l-.47-.03v-1.04c0-6.5,5.29-11.78,11.78-11.78h72.14l.06.02c19.13,5.14,38.77,2.93,58.88-.01h50.35c6.5,0,11.78,5.28,11.78,11.78v2.79l-3.86-.23c-13.74-.83-26.71-1.62-39.45,2.62-.15.08-.19.17-.14.36.3,1.27,3.54,3.68,4.95,3.68,9.87,0,19.52-.48,29.74-.98,2.74-.14,5.48-.27,8.24-.4l.52-.02v30.7h-.51c-1-.03-2-.07-3-.11-3.69-.15-7.5-.31-11.23.63,2.22,3.62,5.52,6.59,9.35,8.38l.81.38-.75.49c-1.92,1.27-4.16,1.94-6.46,1.94ZM260.18,262h40.54c1.81,0,3.57-.45,5.14-1.31-3.85-2.01-7.13-5.15-9.3-8.94l-.32-.55.61-.17c4.08-1.17,8.19-1,12.17-.84.82.03,1.64.07,2.47.09v-28.63c-2.58.12-5.15.25-7.71.37-9.78.48-19.9.98-29.79.98-1.72,0-5.49-2.62-5.92-4.45-.16-.66.1-1.2.7-1.5l.07-.03c12.93-4.31,26.62-3.48,39.86-2.68l2.8.17v-1.73c0-5.95-4.84-10.78-10.78-10.78h-50.28c-20.12,2.95-39.85,5.17-59.15,0h-72.01c-5.95,0-10.78,4.84-10.78,10.78v.1c1.84.13,3.73.38,5.56.62,3.65.49,7.43.99,10.87.5l2.34-.33-2.01,1.25c-5.07,3.17-10.71,4.85-16.76,5.02v13.76c1.6,0,3.22.06,4.79.11,4.46.16,9.08.32,13.59-.8l.45-.11.15.44c.55,1.66.02,3.26-.5,4.82-.49,1.46-.95,2.84-.5,4.18l.51,1.52-1.28-.96c-5.17-3.88-11.31-3.88-17.2-3.47v11.44c1.99.34,4.01.73,5.96,1.1,6.73,1.3,13.69,2.64,20.49,2.02l2.18-.2-1.88,1.12c-1.89,1.13-4.2,1.72-6.43,2.28-3.62.91-7.06,1.78-8.97,4.79h99.09c-.31-.55-.6-1.1-.89-1.64-.48-.92-.94-1.79-1.48-2.59l-.46-.68.82-.09c13.72-1.52,28.28,1.49,43.23,5ZM206.92,228.99c-6.7-1.12-13.83-.97-20.73-.84-11.64.23-23.68.47-34.42-5.21l-1.78-.94h2.01c1.83,0,3.73-.93,4.65-1.85l.17-.17.24.03c16.73,1.97,34.03,4,50.06,8.01l-.2.98ZM153.7,222.79c10.15,4.81,21.48,4.58,32.47,4.36,4.24-.08,8.57-.17,12.85.03-13.61-2.84-27.92-4.53-41.84-6.16-.79.71-2.05,1.42-3.48,1.77Z"/>
      <path class="cls-2" d="M300.46,129h-24.54l.22-.66c.22-.64.5-1.43.91-2.22-4.02.55-7.61,1.69-10.9,2.85l-.17.03h-23.65l-.1-.05c-6.09-2.96-14.06-6.07-22.25-4.18,1.09,1.1,2.18,2.24,3.02,3.44l.55.79h-49.72l-.14-.11c-4.77-3.71-8.99-2.09-13.25.05l-.11.05h-34.55l-.15-.15c-3.83-3.83-7.6-3.41-11.59-2.97-.7.08-1.41.16-2.11.21l-.21.02-.16-.14c-2.59-2.29-4.08-5.58-4.08-9.01v-7.9l.54.05c4.93.43,8.51,1.7,11.28,4.01,4.78,3.18,13.34,4.26,16.22,2.72.65-.35.96-.78.96-1.34-1.38-9.64-12.04-8.75-22.36-7.88-2.04.17-4.15.35-6.12.43l-.52.02v-12.67l.61.14c2.53.57,4.47,0,6.06-1.8-.66-.25-1.32-.53-2.01-.83-1.35-.58-2.75-1.18-4.28-1.55l-.38-.09v-8.52l.55.06c2.3.24,4.66.7,6.93,1.14,4.9.96,9.95,1.94,14.73.76-2.2-.31-4.41-.72-6.56-1.11-4.83-.88-9.83-1.8-15.02-1.8h-.63s0-1.76,0-1.76c0-2.12.57-4.22,1.65-6.07l.15-.25h.29c2.39.07,4.78-.1,7.13-.49-1.35-.85-2.78-1.41-4.42-1.76l-1.05-.22.84-.66c2.15-1.69,4.72-2.59,7.45-2.59h30.51l.14.12c2.41,2.1,6.45,1.01,10.35-.03l.41-.09h50.16l.1.05c10.08,4.7,20.39,2.48,30.37.34l1.84-.38h57.04c4.19,0,8.01,2.13,10.23,5.71l.49.79-.93-.03c-4.57-.16-9.89-.01-15.03,2.05,4.75,2.16,10.26,3.15,16.77,2.99h.51s0,8.04,0,8.04l-.45.05c-3.59.39-7.13.39-10.55.39-4.52,0-9.19,0-14,.92v2.05c4.17-.3,8.35-.02,12.4.24,4.18.27,8.12.53,12.06.22l.54-.04v12.85l-.47.03c-1.46.08-3.06,0-4.61-.09-2.06-.11-4.38-.24-4.88.23-.03.03-.04.05-.04.1,0,1.42.33,2.4,1,3,1.33,1.17,4,.82,6.83.46.53-.07,1.07-.14,1.61-.2l.56-.06v9.46l-.53-.03c-1.26-.07-2.54-.2-3.78-.34-4.72-.51-9.18-.98-12.87,2.09-.3.31.05,1.03.55,1.95.28.51.54.99.61,1.43,1.36,1.23,3.43,1.23,5.27,1.23,2.11,0,4.11,0,4.72,1.84.21.63.48,1.25.86,1.96l.21.4-.38.25c-1.99,1.34-4.31,2.05-6.72,2.05ZM277.32,128h23.14c2.06,0,4.05-.56,5.79-1.64-.3-.6-.53-1.15-.72-1.71-.37-1.1-1.67-1.16-3.78-1.16s-4.46,0-6.1-1.65l-.15-.15v-.21c0-.25-.27-.75-.51-1.19-.55-1.01-1.23-2.27-.34-3.16,4.05-3.38,8.93-2.85,13.65-2.35,1.05.11,2.14.23,3.2.3v-7.28c-.35.04-.7.09-1.04.13-3.06.39-5.95.77-7.62-.7-.9-.79-1.34-2.02-1.34-3.75,0-.32.12-.6.36-.83.77-.73,2.63-.66,5.62-.5,1.35.07,2.75.15,4.03.11v-10.82c-3.84.25-7.81,0-11.66-.26-4.19-.27-8.53-.56-12.8-.2l-.54.04v-3.95l.4-.08c5.05-1.01,9.91-1.01,14.6-1.01,3.25,0,6.61,0,10-.34v-6.13c-6.91.08-12.72-1.08-17.72-3.58l-.94-.47.95-.43c5.27-2.4,10.74-2.7,15.51-2.6-2.08-2.8-5.32-4.45-8.84-4.45h-56.99l-1.68.36c-10.1,2.17-20.55,4.42-30.9-.36h-49.87l-.22.06c-4.08,1.09-8.31,2.22-11.12-.06h-30.14c-2.14,0-4.18.6-5.96,1.75,1.73.49,3.25,1.25,4.72,2.35l.89.67-1.1.22c-2.7.54-5.46.79-8.23.74-.9,1.63-1.37,3.46-1.37,5.31v.76c5.14.04,10.07.94,14.83,1.81,3,.55,5.83,1.07,8.73,1.39l1.98.22-1.85.74c-5.65,2.26-11.62,1.09-17.39-.03-2.07-.4-4.21-.82-6.29-1.07v6.62c1.45.39,2.77.96,4.05,1.5.9.39,1.75.75,2.6,1.04l.66.22-.42.55c-1.77,2.37-4.04,3.29-6.9,2.83v10.4c1.8-.09,3.71-.25,5.56-.4,10.27-.86,21.92-1.83,23.44,8.81,0,.72-.25,1.63-1.49,2.29-3.53,1.89-12.41.44-17.29-2.8-2.54-2.11-5.79-3.31-10.22-3.76v6.8c0,3.08,1.3,6.03,3.58,8.12.62-.05,1.24-.12,1.86-.19,4-.44,8.14-.9,12.26,3.11h33.9c4.3-2.16,8.93-3.9,14.07,0h47.41c-.87-1.08-1.92-2.13-2.94-3.15l-.61-.61.83-.23c8.76-2.39,17.25.86,23.7,3.98h23.33c3.6-1.26,7.55-2.5,12.05-3l1.07-.12-.6.89c-.41.62-.76,1.32-1.1,2.22ZM258.12,109h-3.12c-8.9,0-17.63-1.56-26.08-3.08-4.97-.89-10.11-1.81-15.24-2.41-2.09-.13-3.98-.3-5.75-.52l.09-1c1.81.11,3.7.28,5.77.52,3.49.22,7.13.29,10.65.36,10.98.22,22.34.45,31.77,5.17l1.89.95ZM222.93,103.86c2.08.35,4.14.72,6.17,1.08,7.98,1.43,16.23,2.9,24.59,3.05-8.81-3.69-19.19-3.9-29.25-4.1-.5,0-1-.02-1.51-.03ZM206.36,89.98l-3.5-1c-7.58-2.17-15.32-2.57-22.8-2.96-6.28-.33-12.77-.66-19.17-2.04l.14-.99c4.09.29,8.35.15,12.47.02,10.05-.33,20.44-.67,29.75,5.06l3.1,1.91ZM168.26,84.16c3.98.46,7.96.66,11.86.87,6.23.32,12.63.66,19,2-8.11-3.58-16.97-3.29-25.58-3.01-1.74.06-3.51.12-5.29.14Z"/>
      <path d="M349.89,49.27c1.02.14,2.05.23,3.11.23-1.04-.12-2.07-.19-3.11-.23Z"/>
      <g>
        <path class="cls-2" d="M405.72,62h-57.89c-16.27-2.49-35.39-4.43-54.44-.01h-.11s-53.92.01-53.92.01l5.18-1.92c4.23-1.58,8.58-3.2,13.04-4.45-6.69-.74-12.75,1.18-19.12,3.19-4.13,1.3-8.39,2.65-12.8,3.18h-1.36c-6.5,0-11.78-5.28-11.78-11.78v-1.36l.47-.03c1.92-.12,3.87-.29,5.76-.46,2.77-.25,5.61-.5,8.45-.6-1.63-.46-3.22-.99-4.78-1.52-3.21-1.08-6.24-2.1-9.46-2.46l-.44-.05v-11.66l.52.02c4.7.2,9.57.7,14.27,1.18,9.18.94,18.66,1.92,27.64.73,1.37,0,1.86-.15,2.02-.23-.34-.55-2.61-1.8-5.14-2.81-11.56-5.78-23.54-4.71-36.22-3.58l-3.09.27v-12.75l.33-.12c3.01-1.06,5.78-2.69,8.45-4.26,1.46-.86,2.96-1.74,4.48-2.52h-12.67l.28-.69c1.82-4.44,6.1-7.31,10.9-7.31h59c1.2.06,2.38.08,3.57.11,5.54.12,11.26.25,15.98,3.64.77-1.33,1.94-2.64,3.28-3.65l.13-.1h26.41l.03.47c.08,1.19-.33,2.22-.73,3.22-.4,1-.78,1.96-.64,3.03,6.03-3.62,12.65-4.42,19.06-5.2,3.15-.38,6.4-.77,9.49-1.5h.11s45.73-.01,45.73-.01c6.5,0,11.78,5.29,11.78,11.78v5.01l-.46.04c-12.35,1-26.39,2.98-37.9,9.91,6.77-.74,13.42-.74,19.87-.74,5.84,0,11.88,0,17.95-.56l.55-.05v8.89l-.42.06c-1.82.28-3.7.46-5.52.64-3.23.32-6.55.65-9.74,1.49,5.5,1.44,10.47,2.04,15.16,1.86l.52-.02v7.45l-.45.04c-1.89.19-3.81.28-5.66.36-5.35.23-10.43.45-15.05,3.09,4.74.86,9.81.7,14.71.56,1.96-.06,3.99-.11,5.95-.11h.5v.5c0,6.51-5.29,11.79-11.78,11.79ZM317.94,58.36c10.58,0,20.74,1.24,29.97,2.65h57.81c5.78,0,10.52-4.58,10.77-10.3-1.79,0-3.63.06-5.41.11-5.4.16-10.98.33-16.19-.83l-1.14-.25.98-.65c5.12-3.42,10.97-3.67,16.62-3.91,1.69-.07,3.44-.15,5.16-.31v-5.51c-5.11.15-10.57-.64-16.64-2.38l-1.55-.44,1.53-.51c3.79-1.26,7.77-1.66,11.61-2.04,1.67-.16,3.38-.33,5.04-.57v-6.93c-5.93.51-11.8.51-17.49.51-7.12,0-14.47,0-21.94,1l-2.14.29,1.8-1.2c11.89-7.92,26.74-10.14,39.78-11.21v-4.09c0-5.95-4.84-10.78-10.78-10.78h-45.67c-3.12.73-6.38,1.13-9.54,1.51-6.51.79-13.24,1.6-19.24,5.42l-.54.34-.2-.61c-.56-1.67-.02-3.03.51-4.34.31-.78.61-1.53.66-2.31h-25.11c-1.34,1.04-2.48,2.39-3.14,3.72l-.27.55-.48-.38c-4.55-3.54-10.3-3.66-15.86-3.79-1.2-.03-2.39-.05-3.57-.11h-58.98c-4.14,0-7.85,2.33-9.66,6h15.81l-2.24.96c-2.18.93-4.23,2.14-6.4,3.42-2.62,1.54-5.32,3.14-8.29,4.22v10.96l2-.18c12.26-1.09,24.94-2.22,36.72,3.67,2.74,1.09,5.99,2.68,5.75,3.94-.14.71-1.03,1.01-2.97,1.01-9.03,1.21-18.58.22-27.81-.73-4.51-.47-9.18-.95-13.69-1.15v9.73c3.17.42,6.24,1.45,9.22,2.46,2.97,1,6.05,2.04,9.24,2.47,1.09.04,2.12.12,3.1.23l-.06,1c-.97,0-2.01-.08-3.18-.23-4.29-.17-8.72.22-13,.59-1.74.15-3.54.31-5.32.43v.42c0,5.95,4.84,10.78,10.78,10.78h1.3c4.26-.52,8.48-1.85,12.56-3.13,6.92-2.18,14.06-4.44,21.95-2.86l2.18.44-2.16.54c-5.18,1.29-10.26,3.18-15.18,5.01h48.28c8.31-1.92,16.63-2.64,24.71-2.64ZM373.08,43.41c-9.04,0-17.92-1.13-26.59-2.24-8.37-1.07-17.03-2.17-25.5-2.17h-.21l-.15-.15c-.42-.42-1.09-.64-1.8-.88-.79-.26-1.61-.54-2.2-1.12l-.57-.57.77-.26c20.37-6.79,45.42-4.48,65.39,6.03l1.48.78-1.67.16c-3,.29-5.99.41-8.96.41ZM321.2,38c8.46.02,17.09,1.12,25.43,2.18,10.91,1.39,22.17,2.82,33.6,1.97-19.15-9.54-42.67-11.64-62.07-5.5.31.14.66.25,1.01.37.72.24,1.47.49,2.04.97ZM279.53,34.73c-1.09,0-2.1-.2-2.98-.66-1.49-.79-2.48-2.24-3.03-4.45l-.16-.62h22.53c2.54-.54,4.58-.53,6.27.03l2.92.97h-9.08c-2.27.5-4.69,1.39-7.04,2.26-3.42,1.26-6.71,2.47-9.44,2.47ZM274.66,30c.49,1.57,1.27,2.61,2.35,3.18,2.69,1.42,7.02-.17,11.6-1.86,1.22-.45,2.47-.91,3.71-1.32h-17.66Z"/>
        <path class="cls-2" d="M195.72,62h-18.72c-4.06,0-4.8-2.84-5.45-5.35-.59-2.27-1.1-4.23-3.63-4.65-1.64-.27-3.22-.4-4.75-.51-3.42-.27-6.67-.52-9.88-2.47,1.68,2.75,4.5,4.37,7.45,6.07,2.85,1.64,5.8,3.33,7.64,6.15l.5.77-21.97-.04c-9.77-4.45-20.11-8.43-29.7-4-1.29.64-2.63,1.43-4.05,2.27-.97.57-1.97,1.16-2.98,1.72l-.11.06h-24.6l-.05-.45c-.14-1.37-.43-1.55-.44-1.55-4.45,0-8.46.98-12.2,1.99l-.13.02H14.28c-4.91,0-9.34-3.1-11.05-7.71l-.17-.46.46-.18c3.62-1.38,7.48-2.27,11.2-3.14,2.36-.55,4.76-1.11,7.14-1.8-4.05.33-8.09.22-12.03.11-2.24-.06-4.56-.13-6.83-.11h-.5s0-11.7,0-11.7l.38-.1c1.33-.34,2.65-.64,3.97-.91H2.5V15.46l.48-.02c11.18-.54,23.76-1.14,36.6-3.9-10.49-2-23.61-3.81-36.15-2.02l-.74.11.18-.72C4.19,3.66,8.88,0,14.28,0h26.57s2.1.52,2.1.52c9.1,2.21,18.51,4.5,24.2-.4l.14-.12h72.26l.15.17c2.58,2.93,6.19,2.07,10.82-.12l.21-.05h44.99c5.93,0,10.95,4.44,11.68,10.32l.06.52-.52.04c-3.97.29-7.51,1.45-11.26,2.68-1.05.34-2.12.69-3.21,1.03,4.67,1.93,9.46,3.09,14.57,3.55l.46.04v13.43l-.56-.07c-9.14-1.2-19.18-.5-29.16,2.01,9.59,3.03,19.34,4.7,29.3,6.26l.42.07v10.34c0,.1,0,.2-.01.29l-.03.69-.53-.05c-1.62-.15-3.28-.4-4.89-.65-4.58-.69-8.91-1.34-10.48.48-.86,1-.89,2.76-.09,5.37.68,2.05,6.81,1.87,11.73,1.72l1.36-.04-.96.91c-2.18,1.97-4.98,3.05-7.9,3.05ZM150.89,45.97l1.42,1.13c3.49,2.79,6.94,3.06,10.94,3.37,1.55.12,3.14.24,4.83.53,3.17.53,3.84,3.11,4.43,5.39.64,2.47,1.2,4.6,4.48,4.6h18.72c2.17,0,4.28-.66,6.07-1.88-5.33.13-10.42.07-11.26-2.46-.92-2.98-.82-5.04.28-6.33,1.92-2.23,6.52-1.54,11.38-.82,1.42.21,2.88.43,4.31.59v-9.37c-10.42-1.64-20.61-3.41-30.66-6.76l-1.57-.52,1.59-.43c10.44-2.85,21.01-3.72,30.63-2.54v-11.38c-5.52-.54-10.66-1.89-15.7-4.13l-1.26-.56,1.32-.38c1.54-.44,3.04-.93,4.5-1.41,3.64-1.19,7.09-2.32,10.96-2.68-.89-5.12-5.36-8.93-10.61-8.93h-44.88c-4.25,2-8.61,3.35-11.74,0h-71.44c-6.09,5.08-15.67,2.75-24.95.49l-2.04-.49H14.28c-4.69,0-8.8,3.02-10.24,7.42,13.4-1.77,27.34.45,38.05,2.59l2.25.45-2.24.53c-13.53,3.19-26.84,3.86-38.61,4.43v18.59h9.5l.06,1c-3.26.41-6.39.99-9.56,1.79v9.92c2.13,0,4.28.06,6.37.11,5.59.16,11.38.32,17.04-.81l.28.95c-3.99,1.6-8.18,2.57-12.23,3.52-3.53.82-7.18,1.67-10.6,2.93,1.68,3.96,5.6,6.59,9.92,6.59h58.31c3.78-1.01,7.85-2,12.4-2,.95,0,1.25,1.22,1.36,2h23.44c.97-.54,1.92-1.09,2.85-1.64,1.44-.84,2.79-1.64,4.12-2.31,9.96-4.6,20.5-.58,30.45,3.95h19.76c-1.71-2.16-4.16-3.57-6.74-5.05-3.51-2.02-7.15-4.1-8.71-8.27l-.64-1.7ZM66.56,37h-25.56l-.06-1c1.94-.24,4-.68,5.98-1.09,6.35-1.34,12.91-2.72,18.37,1.18l1.27.91ZM46.6,36h16.63c-4.82-2.49-10.55-1.28-16.1-.11-.18.04-.35.07-.53.11ZM109.7,30.93c-4.36,0-8.6-.32-12.53-.61-1.43-.03-2.86-.13-4.24-.32l.1-1c1.01.07,2.04.15,3.07.23l1.13.08c6.61.13,13.09-1.52,19.35-3.11,6.21-1.58,12.64-3.21,19.41-3.21h1.6l-1.32.91c-8.19,5.67-17.63,7.02-26.58,7.02ZM104.7,29.8c9.69.45,20.39-.08,29.57-5.77-6.02.25-11.82,1.72-17.44,3.14-3.96,1-8,2.03-12.14,2.62Z"/>
      </g>
      <path d="M334.25,141.14c1.25.1,2.5.22,3.75.36-1.28-.26-2.53-.36-3.75-.36Z"/>
      <path class="cls-2" d="M405.22,196h-66.3c-18.15-2.36-33.26-3.26-48.22-.01h-.11s-66.81.01-66.81.01c-1.38,0-2.76-.25-4.08-.74l-1.56-.58,1.62-.38c5.98-1.39,11.59-4.49,18.03-9.97-1.82.35-3.62.72-5.38,1.08-6.58,1.35-12.79,2.63-19.35,2.77h-.37s-.11-.35-.11-.35c-.38-1.17-.57-2.39-.57-3.62v-16.1l1.32.04c9.98.31,19.44.6,28.48-3.41-6.29-.87-12.68-.71-18.87-.57-3.42.08-6.96.16-10.44.08h-.49v-18.47c0-6.5,5.29-11.78,11.78-11.78h5.88l.14.13c.96.89,1.82,1.83,2.73,2.81,1.29,1.4,2.62,2.84,4.27,4.16,4.97,4.96,13.74,5.79,20.44,1.96,5.99-3.81,12.02-6.77,18.43-9.04l.17-.03h65.83l.14.12c3.48,2.9,6.9,1.52,10.86-.08l.19-.04h52.34c3.72,0,7.14,1.71,9.4,4.69l.54.71-.89.09c-8.08.8-14.73,2.68-20.28,5.73,6.48.96,13.49,1.16,22.49.66l.53-.03v12.14h-14.52c1.85.8,3.63,1.84,5.38,2.85,3.03,1.76,5.89,3.43,8.68,3.62l.47.03v10.5h-46.8c14.66,3.99,31.12,7.85,46.28,7.4h.51s0,1.82,0,1.82c0,6.5-5.29,11.78-11.78,11.78ZM311.72,192.88c8.52,0,17.46.85,27.26,2.13h66.23c5.95,0,10.78-4.84,10.78-10.79v-.8c-16.4.37-34.2-4.15-49.63-8.43l-3.53-.98h53.17v-8.58c-2.86-.33-5.67-1.97-8.65-3.71-2.57-1.5-5.23-3.05-7.97-3.73l-3.94-.99h20.56v-10.08c-9.47.5-16.76.21-23.58-.92l-1.34-.22,1.16-.7c5.71-3.43,12.59-5.55,21-6.48-2.05-2.29-4.92-3.59-8.02-3.59h-52.25c-3.83,1.55-7.78,3.11-11.65,0h-65.39c-6.3,2.24-12.25,5.16-18.16,8.92-7.1,4.06-16.39,3.16-21.62-2.07-1.67-1.33-3.02-2.8-4.34-4.23-.85-.92-1.66-1.8-2.53-2.62h-5.49c-5.95,0-10.78,4.84-10.78,10.78v17.49c3.3.07,6.66-.01,9.91-.09,6.77-.16,13.77-.33,20.67.83l1.52.25-1.38.69c-9.71,4.85-20.24,4.53-30.43,4.21h-.29s0,15.06,0,15.06c0,1,.14,1.99.41,2.95,6.33-.17,12.39-1.42,18.79-2.74,2.34-.48,4.76-.98,7.21-1.42l1.75-.32-1.33,1.18c-6.5,5.77-12.14,9.21-18.06,10.93.66.13,1.33.19,2.01.19h66.75c6.94-1.5,13.91-2.12,21.18-2.12ZM283.82,173.01c-4.83,0-9.65-.34-14.39-1.01l.07-1c6.97,0,14.33-.76,21.45-1.5,7.14-.74,14.53-1.5,21.55-1.5h3.57l-3.43.98c-9.36,2.67-19.13,4.03-28.82,4.03ZM276.77,171.77c10.51.73,21.23-.18,31.56-2.68-5.7.22-11.57.82-17.28,1.41-4.71.49-9.53.99-14.28,1.27ZM330.18,157.16c-2.66,0-5.24-.32-7.84-1.18l-1.29-.43,1.27-.51c5.09-2.04,10.22-2.04,15.19-2.04h.21l.15.15c.42.42,1.09.64,1.8.88.79.26,1.61.54,2.2,1.12l.71.71-1.94.28c-3.7.53-7.13,1.03-10.44,1.03ZM324.11,155.45c5.01,1.27,10.11.59,15.91-.24-.21-.08-.44-.16-.67-.23-.72-.24-1.47-.49-2.04-.97-4.34,0-8.81.02-13.2,1.45Z"/>
      <path class="cls-2" d="M195.22,196h-57.92l-.11-.06c-1.87-.96-3.83-.97-5.26-.03l-.12.08h-52.3l-.15-.15c-2.26-2.27-5.77-1.29-9.8.12l-.16.03H13.78c-.58,0-1.2-.05-1.89-.17l-1.54-.25,1.39-.69c1.57-.78,2.8-1.73,3.76-2.89H4.94l-.15-.18c-1.8-2.13-2.79-4.83-2.79-7.61v-7.44l.48-.02c1.57-.08,3.14-.11,4.71-.15,3.88-.09,7.87-.17,11.7-.96-1.26-.19-2.5-.39-3.72-.59-4.3-.71-8.37-1.38-12.65-1.32h-.51s0-10.74,0-10.74h.5c18.69,0,37,.08,55.23.87-12.11-4.74-25.27-4.76-38.02-4.78-5.67,0-11.54-.02-17.25-.44l-.46-.03v-4.81l.42-.07c2.44-.41,4.85-1.15,7.19-1.87,1.87-.57,3.77-1.15,5.72-1.58-4.52-.22-8.92-.27-12.82-.28h-.5v-4.23c0-3.21,1.28-6.22,3.59-8.46l.21-.2.28.08c6.44,1.8,14.67,3.08,21.21-3.06l.14-.14h67.64c5.73.97,12.39,1.73,18.95.02l.13-.02h43.94l-6.5,2.6c7.64,4.54,15.18,1.47,23.14-1.77.65-.26,1.3-.53,1.95-.79l.19-.04h18.34c6.5,0,11.78,5.29,11.78,11.78v3.12l-.48.02c-2.23.09-4.4.89-6.49,1.67-1.11.41-2.25.84-3.4,1.15,2.91,2.06,6.23,2.65,9.93,3.15l.43.06v17.21h-.51c-2.29-.05-4.59-.21-6.81-.38-6.92-.5-13.47-.97-19.68,2.03v3.47c6.64,6.02,15.07,9.49,25.75,10.61l.66.07-.24.61c-1.8,4.52-6.09,7.43-10.94,7.43ZM137.54,195h57.67c4.22,0,7.98-2.41,9.75-6.2-10.67-1.22-19.12-4.81-25.81-10.94l-.16-.15v-4.53l.28-.14c6.54-3.27,13.31-2.78,20.47-2.27,2.05.15,4.16.3,6.25.35v-15.32c-4.03-.55-7.63-1.29-10.82-3.94l-.8-.67,1.03-.21c1.41-.28,2.8-.8,4.28-1.35,2.02-.75,4.1-1.53,6.32-1.71v-2.17c0-5.95-4.84-10.78-10.78-10.78h-18.24c-.62.25-1.24.5-1.85.75-8.13,3.31-16.53,6.74-24.9,1.16l-.79-.53,3.47-1.39h-38.69c-6.73,1.74-13.49.97-19.23,0H27.83c-6.79,6.25-15.14,5.06-21.74,3.25-1.99,2.03-3.09,4.7-3.09,7.54v3.23c5.36.02,11.62.12,17.79.63,1.29,0,2.55.11,3.81.37l-.15.99c-1.25-.14-2.49-.25-3.74-.36-3.7.01-7.16,1.07-10.81,2.19-2.23.68-4.53,1.39-6.89,1.82v3.04c5.53.39,11.21.39,16.72.4,13.76.02,27.99.04,40.99,5.95l2.37,1.08-2.6-.12c-18.98-.9-38.02-.99-57.48-1v8.73c4.19,0,8.14.65,12.32,1.33,2.02.33,4.1.67,6.24.94l2.35.29-2.27.68c-4.69,1.41-9.65,1.52-14.44,1.62-1.4.03-2.8.06-4.2.12v6.49c0,2.47.85,4.87,2.41,6.78h12.03l-.52.78c-.85,1.27-1.94,2.33-3.32,3.22.06,0,.13,0,.19,0h55.53c4.23-1.47,7.96-2.47,10.6,0h51.59c1.69-1.04,3.92-1.04,6.03,0ZM90.33,175.53c-3.48,0-6.49-.42-9.9-.89-1.57-.22-3.2-.45-4.98-.64l-.44-.05v-4.45l.8.6c1.69,1.27,3.57.96,5.76.61,2.54-.41,5.41-.88,8.26,1.4.64.63,1.77.98,3.49,1.09,2.71-.11,5.41-.2,8.2-.2v1c-1.08,0-2.59.35-4.2.71-1.89.43-3.85.88-5.31.79-.57.02-1.12.03-1.67.03ZM76,173.05c1.62.19,3.11.39,4.56.6,3.91.54,7.28,1.01,11.42.85h.03s.03,0,.03,0c.89.06,2.05-.12,3.27-.37-.67.02-1.34.05-2.02.08-2.06-.13-3.36-.56-4.14-1.35-2.46-1.96-4.99-1.55-7.43-1.16-1.92.31-3.9.63-5.71-.3v1.65ZM131.53,159.43c-.95,0-1.91-.09-2.87-.37-13.81.13-28.08.27-42.27-3.07l-2.58-.61,2.62-.38c9.34-1.33,18.04-.91,27.25-.45,4.49.22,9.13.45,13.83.45.12.01,2.56.5,3.5.5l.16.03c.15.05.22.12.7.62.12.13.25.26.34.35,1.47.02,2.19.44,2.82.81.63.37,1.17.69,2.49.69v1c-.97,0-1.97.11-2.93.21-1,.11-2.01.22-3.04.22ZM128.8,158.06l.07.02c1.83.55,3.66.35,5.59.14.03,0,.07,0,.1-.01-.02-.01-.04-.02-.06-.03-.63-.37-1.18-.67-2.5-.67h-.07s-.07-.02-.07-.02c-.17-.05-.24-.13-.73-.64-.12-.13-.24-.25-.32-.34-1.12-.05-3.3-.49-3.4-.5-4.64,0-9.27-.22-13.78-.44-8.2-.4-15.99-.79-24.17.09,13.17,2.68,26.42,2.54,39.27,2.42h.08Z"/>
      <g>
        <path class="cls-2" d="M414.14,69.02l-3.02-.91,2.6,1.8c2.06,1.43,4.16,2.65,6.28,3.72v-1.13c-1.11-.57-2.21-1.17-3.3-1.84,1.08.2,2.18.31,3.3.39v-1c-2.01-.14-3.98-.47-5.86-1.03Z"/>
        <g>
          <path class="cls-1" d="M406.74,91.46c-8.37-1.78-16.27-3.46-24.74-3.46h-.12c-2.15-.55-3.67.51-5.43,1.74-.81.56-1.63,1.14-2.57,1.6,12.21,2.12,25.29,2.73,41.67,1.92-2.99-.55-5.94-1.18-8.82-1.79Z"/>
          <path class="cls-1" d="M411.12,68.11l3.02.91c1.87.56,3.84.89,5.86,1.03v-2.05h-90.72c-4.16,0-7.88,2.35-9.69,6.05l.37-.02c5.42-.29,11.03-.59,16.25,2.02l1.89.95h-2.12c-5.79,0-11.67.71-17.5,2.1v4.66c.14,0,.28,0,.42,0,13.07,0,25.59,2.05,38.23,6.27l-.25.97c-14.69-2.59-26.9-2.62-38.41-.07v24.38c5.19-.44,10.47-1.71,15.58-2.95,3.53-.85,7.17-1.73,10.76-2.33,1.73-.81,3.42.25,4.92,1.18.48.3.98.61,1.46.85l.28.14v3.66l-.33.12c-7.06,2.52-14.71,3.54-22.12,4.53-3.12.42-6.34.85-9.48,1.39,1.79,3.73,5.54,6.11,9.72,6.11h38.17l.59-.21c8.33-2.92,16.2-5.68,25.06-3.78,1.89.58,3.75,1.17,5.6,1.76,2.38.76,4.75,1.51,7.13,2.23h14.16v-34c-6.33.4-12.17.59-17.65.59-11.32,0-21.1-.85-30.44-2.6l-2.25-.42,2.22-.55c1.54-.38,2.79-1.26,4-2.1,1.78-1.24,3.62-2.53,6.18-1.92,8.55,0,16.49,1.69,24.89,3.48,4.24.9,8.61,1.83,13.05,2.51v-19.37c-2.13-1.07-4.22-2.29-6.28-3.72l-2.6-1.8Z"/>
          <path class="cls-2" d="M406.95,90.48c-8.4-1.79-16.33-3.47-24.89-3.48-2.56-.61-4.4.67-6.18,1.92-1.21.84-2.46,1.71-4,2.1l-2.22.55,2.25.42c9.34,1.75,19.12,2.6,30.44,2.6,5.48,0,11.33-.2,17.65-.59v-1.01c-4.44-.69-8.82-1.61-13.05-2.51ZM373.88,91.33c.93-.46,1.76-1.03,2.57-1.6,1.76-1.23,3.28-2.29,5.43-1.75h.12c8.47.01,16.37,1.69,24.74,3.47,2.88.61,5.83,1.24,8.82,1.79-16.39.81-29.47.21-41.67-1.92Z"/>
          <path class="cls-2" d="M405.84,128c-2.38-.71-4.75-1.47-7.13-2.23-1.85-.59-3.71-1.18-5.6-1.76-8.85-1.9-16.72.86-25.06,3.78l-.59.21h-38.17c-4.18,0-7.92-2.38-9.72-6.11,3.14-.54,6.36-.97,9.48-1.39,7.41-.99,15.06-2.01,22.12-4.53l.33-.12v-3.66l-.28-.14c-.48-.24-.98-.55-1.46-.85-1.5-.93-3.19-1.99-4.92-1.18-3.59.6-7.24,1.48-10.76,2.33-5.11,1.24-10.4,2.51-15.58,2.95v-24.38c11.51-2.54,23.73-2.52,38.41.07l.25-.97c-12.65-4.21-25.16-6.27-38.23-6.27-.14,0-.28,0-.43,0v-4.66c5.83-1.4,11.71-2.1,17.5-2.1h2.12l-1.89-.95c-5.22-2.61-10.83-2.31-16.25-2.02l-.37.02c1.8-3.7,5.52-6.05,9.69-6.05h90.72v-1h-90.72c-4.84,0-9.13,2.91-10.94,7.41l-.29.72,1.97-.1c4.54-.24,9.2-.49,13.58,1.01-5.22.17-10.5.9-15.72,2.18l-.38.17v6.38h.5c11-.06,21.59,1.29,32.19,4.19-11.99-1.52-22.4-1.17-32.3,1.08l-.39.09v26.26l.54-.04c5.44-.4,10.95-1.73,16.28-3.02,3.53-.85,7.18-1.74,10.76-2.33l.14-.05c1.25-.63,2.59.21,4.01,1.1.41.26.84.52,1.27.75v2.34c-6.87,2.4-14.35,3.4-21.58,4.37-3.34.45-6.8.91-10.15,1.5l-.61.11.24.57c1.83,4.44,6.1,7.3,10.9,7.3h38.26l.84-.26c8.2-2.87,15.94-5.58,24.47-3.76,1.85.57,3.7,1.16,5.55,1.75,2.41.77,4.81,1.53,7.22,2.25h14.38s0-.98,0-.98h-14.16Z"/>
        </g>
      </g>
      <g>
        <path class="cls-2" d="M4.65,93.71l-4.58-.7S.03,93,0,92.99v1.01s.02,0,.03,0l4.62-.29Z"/>
        <g>
          <path class="cls-2" d="M13.72,68C9.23,69.7,4.49,70.38,0,70.05v1c5.41.37,11.14-.67,16.42-3.1l2.07-.95H0v1h13.72Z"/>
          <path class="cls-2" d="M46.18,128.99c21.26-4.82,38.77-7.14,55.09-7.31h.34s.12-.32.12-.32c.51-1.34.76-2.74.76-4.14v-1.09l-.68.25c-1.23.46-1.83.6-2.11.64.14-.28.44-.71.65-1.02.84-1.23,1.88-2.76,1.03-3.81l-.15-.18h-.24c-.33,0-1-.47-1.55-.84-.26-.18-.52-.36-.78-.52.86-.11,1.13.07,1.22.18l.15.18h2.45v-10.92l-.46-.04c-4.33-.39-8.51-1.45-12.93-2.57-1.45-.37-2.95-.75-4.46-1.1,4.9-1.81,10.12-2.03,15.19-2.25.73-.03,1.45-.06,2.18-.1l.48-.02v-9.75h-.51c-4.98.09-10.22-.7-15.29-1.45-.48-.07-.96-.14-1.44-.21.84-.07,1.67-.14,2.5-.21,4.69-.39,9.55-.8,14.34-1.79l.4-.08v-1.72c0-6.5-5.29-11.78-11.78-11.78h-21.69l-.2.04C48.29,75.82,22.39,84,0,72.5v1.13c22.6,11.33,48.53,3.17,69.12-5.63h21.59c5.95,0,10.78,4.84,10.78,10.78v.9c-4.6.92-9.29,1.31-13.82,1.69-2.21.18-4.49.38-6.74.62l-4.21.47,4.21.53c1.83.23,3.67.5,5.62.79,4.88.73,9.91,1.48,14.76,1.48h.18v7.78c-.56.03-1.13.05-1.69.07-5.67.24-11.53.49-17.01,2.92l-1.39.62,1.48.33c2.03.45,4.04.96,5.98,1.45,4.31,1.09,8.39,2.13,12.63,2.55v9.01h-1.01c-.64-.54-1.8-.53-3.64.02l-3.27.98h3.41c.48,0,1.22.52,1.88.98.64.44,1.24.86,1.8.99.15.55-.63,1.69-1.15,2.46-.69,1.01-1.18,1.74-.75,2.29.35.45,1.07.42,2.71-.15-.03,1.05-.23,2.1-.58,3.12-16.28.2-33.74,2.52-54.9,7.32H0v.98l46.13.02h.05Z"/>
          <path class="cls-2" d="M59.22,103.05c-7.87-3.93-14.86-4.1-24.28-3.05l-.27.03-.12.24c-.11.22-1.05,2.14-1.05,3.22v.5h27.62l-1.89-.95ZM34.57,103c.15-.66.52-1.52.76-2.03,8.47-.93,14.63-.85,21.4,2.03h-22.16Z"/>
        </g>
      </g>
      <g>
        <path class="cls-1" d="M397.69,227c5.24,5.95,13.21,9.45,22.31,11.16v-9.37c-5.47-.87-10.95-1.5-16.45-1.79h-5.87Z"/>
        <path class="cls-1" d="M387.6,204.38l-2.43.82v-.69c0-.84-.43-1.72-.9-2.5h-55.04c-5.82,0-10.57,4.68-10.73,10.48,9.93-.26,17.96.9,24.56,3.55l.93.37-.86.52c-7.76,4.68-16.04,6.36-24.64,5.02v11.79c8.98,1.07,18.04-.45,26.81-1.93,12.08-2.03,24.56-4.13,37.54.21l1.24.42-1.2.52c-15.05,6.48-29.89,7.83-44.11,4.02-6.89-1.73-13.78-.74-20.27.47v13.76c0,3.9,2.09,7.49,5.47,9.4,3.29-.29,6.64-.71,9.88-1.11,5.89-.74,11.98-1.5,17.99-1.5h.12l.1.05c.97.49,1.5,1.92,1.96,3.95h65.99v-22.77c-10.69-1.95-18.68-6.11-23.77-12.41l-.66-.82h8.01c5.49.29,10.96.92,16.42,1.78v-25.78h-25.05c-2.41.71-4.81,1.52-7.35,2.38Z"/>
        <path class="cls-2" d="M397.69,227h5.87c5.49.29,10.97.92,16.45,1.79v-1.01c-5.46-.86-10.93-1.49-16.42-1.78h-8.01l.66.82c5.09,6.3,13.08,10.46,23.77,12.41v-1.07c-9.1-1.71-17.07-5.2-22.31-11.16Z"/>
        <path class="cls-2" d="M354.01,262c-.46-2.02-.99-3.46-1.96-3.95l-.1-.05h-.12c-6.01,0-12.1.76-17.99,1.5-3.24.41-6.59.83-9.88,1.11-3.38-1.91-5.47-5.5-5.47-9.4v-13.76c6.49-1.21,13.38-2.2,20.27-.47,14.22,3.81,29.06,2.46,44.11-4.02l1.2-.52-1.24-.42c-12.97-4.35-25.46-2.25-37.54-.21-8.77,1.47-17.82,3-26.81,1.93v-11.79c8.6,1.35,16.88-.34,24.64-5.02l.86-.52-.93-.37c-6.6-2.65-14.63-3.81-24.56-3.55.16-5.81,4.91-10.48,10.73-10.48h55.04c.47.78.9,1.66.9,2.5v.69l2.43-.82c2.54-.86,4.94-1.67,7.35-2.38h25.05v-1h-25.12l-.14.02c-2.45.72-4.88,1.54-7.45,2.41l-1.18.4c-.17-.94-.66-1.82-1.13-2.59l-.15-.24h-55.6c-6.47,0-11.73,5.29-11.73,11.78v.73l.51-.02c9.54-.3,17.31.71,23.72,3.09-7.46,4.25-15.41,5.69-23.65,4.27l-.58-.1v13.86l.43.06c9.27,1.19,18.55-.37,27.53-1.88,11.56-1.94,23.49-3.95,35.77-.23-14.41,5.94-28.61,7.1-42.22,3.45-7.23-1.82-14.4-.73-21.11.53l-.41.08v14.59c0,4.31,2.34,8.28,6.12,10.35l.13.07h.15c3.36-.3,6.77-.73,10.07-1.14,5.82-.73,11.83-1.48,17.73-1.49.67.46,1.12,2.16,1.43,3.61l.08.39h66.79v-1h-65.99Z"/>
      </g>
      <g>
        <path class="cls-1" d="M39.83,237.02l2.03.56-2.07.41c-5.27,1.05-14.44,2.51-24.57,2.51-3.22,0-6.55-.15-9.87-.5-1.85-.2-3.63-.46-5.35-.77v22.77h15.55c1.42-5.03,5.75-7.76,11.15-7,2.48.61,4.87,1.18,7.22,1.73,6.71,1.58,13.04,3.08,19.37,5.26h37.37c5.98,0,10.84-4.84,10.84-10.78v-15.29c-.92-.02-1.87.02-2.78.04-4.75.12-9.67.24-12.23-4.21-2.17-3.79-2.76-6.63-1.79-8.7,1.46-3.11,6.19-3.95,11.19-4.83,1.86-.33,3.77-.67,5.6-1.13v-4.3c0-5.95-4.86-10.78-10.84-10.78h-27.16l-1.72.62c-8.13,2.96-15.81,5.76-24.17,4.37-1.04-.34-1.35-.92-1.45-1.35-.24-1.12.7-2.49,1.78-3.64H0v25.78c13.24,2.07,26.44,5.54,39.83,9.24Z"/>
        <path class="cls-1" d="M37.49,237.41c-12.6-3.46-25.04-6.67-37.49-8.63v9.37c11.74,2.19,25.35,1.47,37.49-.75Z"/>
        <path class="cls-2" d="M16.43,262.62c.93-3.77,4.08-7.48,10.08-6.63,2.43.6,4.82,1.17,7.18,1.73,6.71,1.58,13.05,3.08,19.35,5.26l.08.03h37.54c6.53,0,11.84-5.29,11.84-11.78v-16.28h-.49c-1.11-.03-2.23,0-3.32.02-4.66.12-9.07.23-11.33-3.71-2-3.48-2.57-6.03-1.75-7.78,1.24-2.64,5.72-3.43,10.46-4.27,2-.35,4.07-.72,6.06-1.25l.37-.1v-5.08c0-6.5-5.31-11.78-11.84-11.78h-27.25l-1.98.69c-8.01,2.91-15.57,5.66-23.59,4.34-.62-.21-.69-.5-.71-.6-.16-.71.75-2.08,2.37-3.56l.94-.87H0v1h37.94c-1.09,1.15-2.03,2.52-1.78,3.64.09.43.41,1.01,1.45,1.35,8.36,1.39,16.04-1.41,24.17-4.37l1.72-.62h27.16c5.98,0,10.84,4.84,10.84,10.78v4.3c-1.83.46-3.75.8-5.6,1.13-5,.89-9.73,1.73-11.19,4.83-.97,2.07-.39,4.91,1.79,8.7,2.56,4.46,7.48,4.34,12.23,4.21.91-.02,1.86-.05,2.78-.04v15.29c0,5.95-4.86,10.78-10.84,10.78h-37.37c-6.33-2.18-12.66-3.68-19.37-5.26-2.35-.56-4.74-1.12-7.22-1.73-5.39-.76-9.73,1.97-11.15,7H0v1h16.33l.09-.38Z"/>
        <path class="cls-2" d="M15.22,240.5c10.14,0,19.3-1.46,24.57-2.51l2.07-.41-2.03-.56c-13.39-3.7-26.59-7.17-39.83-9.24v1.01c12.45,1.96,24.89,5.16,37.49,8.63-12.14,2.21-25.75,2.93-37.49.75v1.07c1.72.31,3.49.57,5.35.77,3.33.36,6.65.5,9.87.5Z"/>
      </g>
    </g>
  </g>
</svg>