<?xml version="1.0" encoding="UTF-8"?>
<svg id="Laag_2" data-name="Laag 2" xmlns="http://www.w3.org/2000/svg" viewBox="0 0 316 244.31">
  <defs>
    <style>
      .cls-1 {
        fill: #ece8ef;
      }
    </style>
  </defs>
  <g id="Dimensions">
    <path class="cls-1" d="M0,0c66.9,38.88,137.51,107.72,179.49,172.9,5.32,8.43,10.48,17.53,14.82,26.51,3.06,6.54,6.21,13.99,8.18,20.96.56,2.02,1.1,4.03,1.63,6.05,0,0-48.48-4.81-48.48-4.81,0,0,.35-.67.35-.67,25.99-43.63,72.63-76.42,122.97-83.69,12.25-1.65,24.83-1.94,37.03-.26-8.16,4.23-16.33,8.38-24.2,13.03-21.91,12.91-41.85,29.06-58.56,48.17-12.1,14.08-23.07,29.32-30.89,46.1.6.31-48.47-4.81-48.49-4.72-2.09-5.38-4.73-10.62-7.51-15.69-7.73-13.58-16.17-26.19-25.29-39.42C79.48,124.48,33.86,65.36,0,0h0Z"/>
  </g>
</svg>